<svg width="22" height="20" viewBox="0 0 22 20" fill="none" xmlns="http://www.w3.org/2000/svg">
<path fill-rule="evenodd" clip-rule="evenodd" d="M17.2963 9.97C16.9563 10.59 16.2963 11 15.5463 11H8.09629L6.99629 13H18.9963V15H6.99629C5.47629 15 4.51629 13.37 5.24629 12.03L6.59629 9.59L2.99629 2H0.996292V0H4.26629L5.20629 2H20.0063C20.7663 2 21.2463 2.82 20.8763 3.48L17.2963 9.97ZM18.3063 4H6.15629L8.52629 9H15.5463L18.3063 4ZM6.99629 16C5.89629 16 5.00629 16.9 5.00629 18C5.00629 19.1 5.89629 20 6.99629 20C8.09629 20 8.99629 19.1 8.99629 18C8.99629 16.9 8.09629 16 6.99629 16ZM15.0063 18C15.0063 16.9 15.8963 16 16.9963 16C18.0963 16 18.9963 16.9 18.9963 18C18.9963 19.1 18.0963 20 16.9963 20C15.8963 20 15.0063 19.1 15.0063 18Z" fill="white"/>
</svg>
